
<svg width="1024" height="1024" viewBox="0 0 1024 1024" fill="none" xmlns="http://www.w3.org/2000/svg">
<path d="M503.708 154.114C382.339 160.254 340.385 198.378 340.385 266.667C340.385 266.667 341.333 361.143 496.949 374.751C652.564 388.359 685.563 261.877 685.563 261.877C685.563 175.025 625.077 147.974 503.708 154.114Z" stroke="black" stroke-width="10"/>
<path d="M359.282 227.598C359.282 227.598 359.735 266.667 493.533 266.667C627.331 266.667 666.667 222.122 666.667 222.122" stroke="black" stroke-width="8"/>
<path d="M362.698 188.529C362.698 188.529 390.544 206.75 493.533 212.693C596.523 218.636 653.946 188.529 653.946 188.529" stroke="black" stroke-width="8"/>
<path d="M421.607 374.751C411.209 374.751 326.677 385.618 315.795 447.187C304.913 508.757 318.058 540.734 314.307 579.195C310.555 617.656 327.429 629.14 327.429 673.761C327.429 718.382 343.399 744.387 358.799 761.71C374.199 779.032 407.676 800.705 421.607 811.024C435.537 821.344 464.423 840.512 501.231 842.001C538.039 843.489 565.99 827.568 586.731 815.08C607.472 802.591 633.793 777.667 651.392 755.466C668.99 733.266 685.564 702.691 691.074 669.031C696.584 635.371 702.094 579.194 696.584 548.07C691.074 516.947 683.815 479.585 670.934 447.187C658.053 414.79 631.043 385.15 593.795 374.751C556.547 364.352 529.537 374.751 496.949 374.751C464.361 374.751 432.005 374.751 421.607 374.751Z" stroke="black" stroke-width="10"/>
<path d="M432.481 965.271C438.89 977.689 461.726 983.163 474.144 976.754C486.563 970.345 492.037 947.509 485.628 935.09L464.934 892.987C458.525 880.569 435.689 875.095 423.271 881.504C410.853 887.913 405.379 910.749 411.788 923.167L432.481 965.271Z" fill="black"/>
<path d="M574.406 965.271C567.997 977.689 545.161 983.163 532.743 976.754C520.324 970.345 514.85 947.509 521.259 935.09L541.953 892.987C548.362 880.569 571.198 875.095 583.616 881.504C596.034 887.913 601.508 910.749 595.099 923.167L574.406 965.271Z" fill="black"/>
<path d="M382.629 892.987L374.133 910.227C367.724 922.645 373.198 945.481 385.616 951.89C398.034 958.299 420.87 952.825 427.279 940.406L435.776 923.167" stroke="black" stroke-width="10"/>
<path d="M624.258 892.987L632.755 910.227C639.163 922.645 633.689 945.481 621.271 951.89C608.853 958.299 586.017 952.825 579.608 940.406L571.111 923.167" stroke="black" stroke-width="10"/>
<path d="M421.607 510.833L436.806 494.459C443.215 482.041 466.051 476.567 478.469 482.976C490.887 489.385 496.361 512.221 489.952 524.639L474.753 541.013" stroke="black" stroke-width="10"/>
<path d="M585.281 510.833L570.081 494.459C563.672 482.041 540.836 476.567 528.418 482.976C516 489.385 510.526 512.221 516.935 524.639L532.134 541.013" stroke="black" stroke-width="10"/>
<circle cx="421.607" cy="479.264" r="11.299" fill="black"/>
<circle cx="585.281" cy="479.264" r="11.299" fill="black"/>
<path d="M370.377 447.187C411.093 439.98 425.64 434.849 445.514 428.922C465.389 422.995 503.444 423.791 520.667 422.995C537.889 422.199 547.829 423.807 586.262 435.126C624.694 446.445 641.62 453.583 641.62 453.583" stroke="black" stroke-width="10"/>
<path d="M431.406 606.205C444.536 612.672 482.969 615.822 502.875 615.822C522.78 615.822 562.96 609.354 576.666 606.205" stroke="black" stroke-width="6"/>
<path d="M401.738 579.194C401.738 579.194 423.839 595.806 503.124 595.806C582.41 595.806 602.717 579.194 602.717 579.194C602.717 579.194 582.41 610.318 503.124 610.318C423.839 610.318 401.738 579.194 401.738 579.194Z" fill="black"/>
</svg>
