<?xml version="1.0" standalone="no"?>
<!DOCTYPE svg PUBLIC "-//W3C//DTD SVG 20010904//EN"
 "http://www.w3.org/TR/2001/REC-SVG-20010904/DTD/svg10.dtd">
<svg version="1.0" xmlns="http://www.w3.org/2000/svg"
 width="1024.000000pt" height="1024.000000pt" viewBox="0 0 1024.000000 1024.000000"
 preserveAspectRatio="xMidYMid meet">

<g transform="translate(0.000000,1024.000000) scale(0.100000,-0.100000)"
fill="#000000" stroke="none">
<path d="M4845 9484 c-327 -35 -508 -70 -729 -141 -339 -109 -624 -267 -908
-502 -80 -67 -273 -275 -390 -421 -157 -197 -354 -551 -418 -750 -33 -104 -34
-106 -117 -189 -68 -68 -92 -101 -128 -175 -70 -142 -80 -211 -80 -531 0 -281
7 -353 46 -472 11 -34 31 -78 45 -98 44 -66 26 -168 -36 -200 -61 -32 -158
-11 -201 43 -14 18 -20 39 -18 67 5 86 0 115 -19 115 -23 0 -37 -29 -53 -109
-15 -76 -7 -156 20 -208 31 -61 118 -135 182 -155 101 -32 152 -115 114 -187
-18 -35 -66 -61 -112 -61 -44 0 -106 41 -117 75 -12 44 -20 57 -40 69 -13 9
-20 7 -32 -9 -8 -11 -12 -29 -9 -40 3 -11 10 -45 14 -75 20 -131 85 -210 172
-210 21 0 29 -4 26 -12 -3 -7 -19 -45 -36 -84 -62 -144 -81 -336 -52 -519 25
-161 59 -281 116 -409 65 -146 101 -200 195 -296 126 -129 275 -209 407 -218
l72 -5 31 -136 c80 -346 146 -516 305 -786 l53 -90 -4 -325 c-3 -179 -8 -360
-12 -403 l-7 -78 -178 -85 c-193 -91 -273 -137 -327 -190 -55 -53 -143 -95
-715 -341 -993 -429 -1533 -728 -1828 -1012 l-77 -74 0 -60 0 -59 43 58 c141
190 500 430 1067 714 225 113 609 285 1075 482 77 33 182 79 234 104 51 24 95
44 97 44 2 0 4 -23 4 -51 0 -140 77 -384 172 -543 204 -342 607 -658 1162
-910 71 -33 87 -36 165 -36 l86 1 -115 47 c-258 108 -415 193 -672 363 -178
118 -233 162 -346 278 -196 201 -334 447 -376 670 -31 164 -15 221 86 299 50
38 224 129 232 121 2 -2 0 -31 -6 -64 -5 -33 -8 -105 -5 -160 8 -188 78 -324
280 -546 103 -113 185 -188 298 -271 101 -75 422 -237 634 -320 180 -71 412
-133 615 -165 160 -24 591 -24 770 0 332 46 551 113 825 253 269 136 448 266
661 478 210 211 283 314 339 480 31 92 43 230 27 290 -7 22 -10 42 -8 44 11
10 239 -113 274 -148 73 -73 79 -171 22 -342 -102 -303 -295 -555 -602 -785
-275 -206 -473 -326 -728 -443 l-164 -75 74 -3 c75 -3 75 -3 215 67 457 228
862 544 1070 833 132 184 221 408 232 584 l6 91 86 -34 c47 -19 167 -63 266
-99 183 -66 676 -262 907 -360 570 -243 939 -463 1161 -693 38 -39 71 -71 73
-71 2 0 4 24 3 53 0 49 -2 54 -44 87 -24 19 -91 73 -148 120 -281 227 -716
450 -1442 737 -159 63 -364 142 -455 175 -90 33 -231 89 -312 124 -81 35 -151
64 -156 64 -5 0 -17 9 -28 21 -10 12 -48 38 -84 59 -63 38 -107 58 -335 154
l-111 47 -12 167 c-7 92 -16 291 -19 442 l-6 275 60 120 c34 66 75 160 92 208
43 122 118 390 147 527 14 63 27 122 30 131 4 13 18 17 67 17 74 1 133 13 224
47 94 36 143 66 218 136 233 218 375 591 375 982 0 380 -127 621 -339 643 -34
4 -61 10 -61 14 0 5 31 17 69 29 125 38 259 149 296 244 15 40 16 55 6 103
-16 84 -47 137 -133 229 l-77 82 57 6 c85 8 211 52 273 95 58 40 111 116 131
187 15 55 13 163 -5 205 -37 85 -133 180 -183 180 -31 0 -34 -24 -12 -90 26
-77 26 -186 0 -237 -42 -81 -140 -137 -263 -150 l-60 -6 8 59 c5 32 7 154 7
269 -1 192 -4 218 -28 309 -42 161 -72 215 -178 317 l-92 89 -33 118 c-84 290
-282 604 -610 968 -159 176 -406 365 -630 482 -118 61 -338 151 -443 181 -41
11 -129 37 -195 56 -180 53 -438 86 -705 90 -118 1 -233 1 -255 -1z m74 -186
c-4 -68 -10 -319 -15 -559 l-7 -435 -176 -12 c-97 -7 -200 -15 -228 -19 l-53
-6 0 85 c0 151 70 606 136 880 38 157 38 158 68 164 54 9 169 21 226 23 l55 1
-6 -122z m315 116 c40 -6 46 -10 46 -31 0 -14 11 -98 25 -186 27 -179 71 -599
81 -774 l7 -113 -159 0 c-87 0 -190 -3 -228 -7 l-69 -6 8 509 c5 280 8 533 7
562 l-1 52 118 0 c65 0 139 -3 165 -6z m201 -19 c66 -8 124 -15 128 -15 17 0
60 -58 93 -122 85 -168 201 -651 211 -877 5 -109 4 -123 -10 -118 -15 6 -236
32 -358 43 l-66 5 -7 102 c-14 208 -97 931 -112 980 -3 9 -4 17 -2 17 2 0 58
-7 123 -15z m-879 -103 c-61 -193 -156 -778 -156 -964 0 -32 -3 -58 -8 -58
-30 0 -193 -24 -271 -40 -52 -11 -108 -20 -124 -20 l-30 0 6 84 c11 142 43
303 101 502 62 219 121 372 174 459 33 53 43 62 89 77 75 25 237 57 241 47 2
-4 -8 -43 -22 -87z m1226 37 c160 -45 207 -68 249 -125 56 -76 83 -128 143
-279 90 -228 168 -532 179 -698 4 -59 3 -67 -12 -63 -16 5 -406 86 -414 86 -2
0 -7 39 -11 88 -23 278 -157 827 -238 970 -19 33 -25 52 -17 52 7 0 62 -14
121 -31z m-1592 -111 c-108 -206 -237 -675 -256 -932 l-7 -85 -76 -16 c-79
-18 -318 -81 -347 -92 -15 -5 -16 0 -10 51 25 195 136 524 273 806 58 121 73
142 140 207 73 71 76 73 196 112 67 22 125 40 129 40 3 1 -15 -41 -42 -91z
m2116 -72 c85 -41 94 -48 152 -125 111 -147 199 -330 288 -596 48 -145 102
-381 89 -393 -3 -3 -22 0 -43 7 -51 16 -298 87 -348 100 l-41 11 -7 72 c-25
269 -186 777 -302 953 -24 38 -44 69 -44 71 0 8 171 -60 256 -100z m-2486 -21
c-132 -192 -338 -752 -359 -977 l-6 -69 -202 -68 c-150 -51 -203 -65 -203 -54
0 8 9 60 21 116 28 136 108 367 174 502 88 182 236 387 320 445 47 32 264 150
278 150 4 0 -6 -20 -23 -45z m2780 -133 c93 -59 211 -152 304 -242 82 -78 94
-94 147 -205 74 -152 144 -362 179 -535 15 -74 27 -136 26 -137 -2 -2 -70 23
-152 56 -82 32 -167 64 -189 72 l-39 14 -13 93 c-18 122 -70 299 -138 472 -89
225 -148 338 -242 470 l-18 24 40 -24 c22 -13 65 -39 95 -58z m-3255 -177
c-75 -113 -162 -280 -209 -402 -42 -107 -105 -343 -114 -424 l-7 -59 -149 -70
c-82 -39 -151 -70 -154 -70 -2 0 -1 26 3 58 22 191 142 515 233 628 106 133
419 432 454 434 4 0 -22 -43 -57 -95z m3889 -425 c111 -144 189 -265 267 -415
62 -119 119 -263 119 -302 0 -7 -37 12 -82 41 -46 30 -121 74 -168 99 -79 41
-85 47 -88 78 -10 124 -87 404 -157 572 -19 45 -35 84 -35 86 0 13 80 -75 144
-159z m-4483 -247 c-41 -123 -71 -267 -71 -338 l0 -40 -107 -63 c-58 -34 -108
-61 -110 -58 -10 10 105 276 164 380 44 76 156 246 160 242 2 -1 -15 -57 -36
-123z m2515 -70 c9 -192 12 -768 4 -776 -3 -2 -114 -8 -246 -11 l-242 -8 -7
179 c-8 178 -2 760 8 769 4 5 266 19 413 22 l62 2 8 -177z m279 162 c172 -18
219 -25 233 -34 18 -11 33 -526 21 -746 -6 -104 -12 -191 -14 -193 -1 -2 -61
2 -131 7 -71 6 -178 13 -237 17 -99 5 -107 7 -102 25 4 10 1 170 -4 356 -10
324 -15 528 -12 566 1 22 53 22 246 2z m-805 -479 l0 -473 -62 -6 c-35 -3
-143 -14 -241 -23 -97 -10 -179 -15 -182 -13 -2 3 -9 47 -16 99 -12 95 -6 565
9 760 l7 84 35 8 c19 5 123 14 230 22 107 7 201 14 208 15 9 1 12 -100 12
-473z m1300 403 c91 -16 180 -33 198 -36 40 -7 46 -19 60 -133 37 -286 39
-546 6 -710 -9 -47 -18 -86 -19 -87 0 -1 -77 8 -170 21 -94 13 -195 27 -226
30 l-56 7 1 347 c1 191 -3 404 -7 474 l-8 128 28 -5 c15 -3 102 -19 193 -36z
m-1824 -31 c-18 -176 -24 -765 -8 -843 6 -27 10 -51 9 -52 -1 -1 -55 -9 -120
-18 -65 -9 -171 -27 -235 -40 -64 -13 -119 -22 -120 -20 -32 32 -21 819 13
926 7 22 16 24 235 63 252 46 233 47 226 -16z m2444 -114 l90 -27 15 -51 c23
-80 35 -186 41 -391 5 -165 -6 -449 -19 -461 -3 -3 -33 2 -68 11 -35 8 -135
30 -222 49 -88 19 -161 37 -164 40 -3 3 0 41 8 83 28 154 10 691 -27 820 -6
21 -4 21 125 -13 72 -18 172 -45 221 -60z m-2940 44 c-26 -96 -48 -677 -31
-812 7 -54 11 -100 8 -102 -3 -3 -54 -16 -113 -29 -60 -14 -158 -39 -217 -56
-59 -18 -109 -30 -111 -28 -2 2 -10 58 -16 124 -16 155 -8 535 15 659 25 140
19 134 180 188 118 40 261 84 287 87 3 1 2 -14 -2 -31z m3235 -143 c86 -31
181 -68 213 -83 l57 -27 12 -65 c18 -97 36 -500 29 -623 -7 -115 -23 -207 -35
-207 -5 0 -37 13 -72 29 -35 15 -123 50 -196 77 l-132 48 6 246 c6 252 -6 477
-31 598 -8 34 -12 62 -10 62 2 0 74 -25 159 -55z m-3703 12 c-6 -6 -18 -50
-28 -97 -15 -71 -18 -138 -18 -405 -1 -176 1 -342 4 -369 l4 -48 -124 -47
c-69 -26 -154 -60 -188 -76 -74 -33 -75 -33 -92 63 -19 109 -23 281 -11 427
15 171 34 269 69 355 26 62 31 67 92 99 63 34 261 109 289 110 10 1 11 -3 3
-12z m4167 -215 c14 -9 58 -40 97 -69 93 -70 112 -117 135 -328 18 -169 -4
-660 -31 -689 -15 -16 -71 16 -94 53 -33 51 -99 109 -187 164 l-76 47 16 53
c28 94 16 749 -15 831 -4 12 12 7 62 -15 37 -17 79 -38 93 -47z m-4594 -3
c-43 -119 -60 -261 -60 -509 0 -182 4 -238 18 -295 10 -38 14 -71 9 -73 -36
-12 -196 -128 -234 -171 -44 -49 -47 -51 -58 -31 -70 132 -81 598 -19 863 l21
89 72 46 c68 45 268 153 273 149 1 -2 -9 -32 -22 -68z m4975 -286 c133 -152
186 -434 145 -773 -20 -165 -23 -178 -46 -190 -16 -9 -38 2 -130 66 l-111 77
6 56 c40 365 31 753 -20 885 -10 26 105 -63 156 -121z m-5355 67 c-25 -94 -38
-247 -38 -445 0 -202 9 -274 49 -389 l24 -70 -104 -100 c-136 -131 -166 -199
-111 -250 30 -27 31 -36 8 -36 -28 0 -91 116 -108 196 -63 313 -37 723 60 914
21 41 221 247 231 238 2 -2 -3 -28 -11 -58z m3224 -285 c459 -43 896 -127
1215 -233 170 -56 218 -77 330 -142 130 -77 131 -77 134 -116 1 -21 9 -100 17
-174 13 -123 29 -339 55 -745 6 -82 6 -153 1 -158 -4 -4 -34 -7 -66 -5 l-58 3
-35 64 c-63 115 -128 160 -313 219 -290 93 -635 97 -974 12 -217 -54 -381
-144 -461 -252 -23 -32 -49 -75 -56 -94 -7 -19 -17 -32 -23 -30 -74 34 -171
70 -215 82 -83 21 -204 17 -346 -12 -137 -28 -188 -45 -220 -76 l-22 -19 -21
45 c-74 151 -281 278 -561 342 -265 60 -513 69 -747 25 -259 -49 -388 -123
-473 -275 -31 -55 -33 -56 -77 -56 l-46 0 7 173 c10 251 24 442 51 705 13 129
21 240 18 247 -9 25 278 156 515 235 219 73 666 168 937 200 413 48 384 46
869 48 293 2 442 -2 565 -13z m2776 -355 c27 -53 33 -127 15 -190 -15 -55 -65
-126 -107 -154 -53 -35 -164 -72 -252 -85 -87 -12 -111 -4 -111 38 l0 28 83 5
c90 6 169 35 232 85 72 57 112 164 100 270 -8 77 2 77 40 3z m-269 -726 c35
-60 42 -130 16 -180 -30 -58 -104 -121 -187 -160 -86 -40 -127 -46 -80 -12
134 98 198 278 147 418 -11 30 -23 64 -27 75 -10 29 102 -92 131 -141z m-1458
-220 c338 -44 489 -148 553 -379 19 -71 21 -96 16 -250 -6 -214 -30 -318 -114
-485 -50 -101 -68 -126 -148 -206 -136 -136 -249 -183 -504 -206 -274 -24
-489 40 -699 208 -253 202 -400 577 -337 860 23 103 53 162 118 226 202 201
646 293 1115 232z m-2743 -34 c139 -30 302 -85 376 -129 90 -52 183 -142 213
-205 14 -29 33 -95 42 -147 20 -111 13 -190 -35 -354 -59 -202 -87 -253 -209
-379 -255 -265 -612 -356 -980 -250 -141 41 -207 79 -302 174 -102 101 -146
174 -194 320 -51 152 -68 281 -64 465 l4 150 44 83 c80 150 122 183 290 236
168 54 273 66 505 61 164 -3 232 -8 310 -25z m4043 -296 c85 -35 143 -124 189
-291 25 -90 27 -113 27 -278 0 -198 -16 -296 -73 -473 -93 -283 -272 -501
-476 -577 -63 -24 -234 -60 -242 -51 -5 5 55 494 63 516 4 8 10 96 15 195 4
99 17 231 29 294 11 62 20 148 20 190 0 56 6 91 23 131 19 45 102 182 181 296
39 57 165 81 244 48z m-2798 -15 c30 -6 87 -26 127 -44 l72 -33 -6 -144 c-7
-196 13 -295 96 -462 121 -245 288 -403 533 -504 200 -83 481 -93 716 -26 198
57 306 146 447 368 51 80 91 181 123 306 23 92 26 126 26 277 l1 173 43 0 42
0 0 -129 c0 -134 8 -159 44 -145 14 5 16 -9 16 -132 0 -77 -7 -188 -14 -249
-8 -60 -20 -173 -26 -250 -29 -369 -145 -959 -255 -1300 -61 -189 -198 -451
-322 -616 -149 -197 -494 -558 -673 -702 -152 -122 -233 -175 -354 -233 -411
-194 -1194 -171 -1586 48 -277 154 -617 470 -934 867 -254 318 -387 611 -481
1061 -111 532 -166 1093 -150 1533 7 203 8 217 26 217 17 0 19 -9 19 -95 0
-145 18 -276 55 -405 43 -147 62 -191 121 -281 95 -144 213 -244 351 -298 72
-28 229 -59 343 -66 317 -22 660 128 841 368 80 106 132 218 176 378 34 126
36 143 37 288 l1 155 31 18 c36 21 165 55 256 68 70 9 174 5 258 -11z m2381
11 c10 -6 19 -20 19 -30 0 -18 -7 -20 -72 -20 -40 0 -103 3 -140 7 -55 5 -68
9 -68 23 0 9 3 20 7 23 10 11 233 8 254 -3z m-4914 -16 c89 -7 90 -7 85 -31
l-5 -25 -131 4 c-72 1 -136 6 -143 11 -6 4 -9 16 -6 27 6 23 40 25 200 14z
m-222 -205 c68 -64 129 -158 149 -229 8 -31 20 -144 26 -260 12 -222 25 -356
71 -720 16 -129 29 -252 29 -273 l0 -38 -37 7 c-116 21 -264 98 -359 186 -152
143 -270 400 -315 690 -16 105 -6 301 20 397 25 94 73 190 116 231 43 42 95
59 178 60 l68 0 54 -51z m4584 -3204 c15 -177 28 -260 56 -361 27 -97 49 -137
73 -132 22 5 19 47 -9 140 -12 37 -19 72 -17 78 3 11 70 -20 99 -47 43 -37 52
-211 18 -333 -29 -105 -78 -194 -168 -302 -272 -326 -701 -618 -1113 -757
-273 -92 -449 -121 -796 -128 -542 -12 -874 67 -1411 336 -220 111 -304 169
-470 327 -181 172 -292 336 -331 489 -24 94 -25 160 -2 283 l17 94 55 23 c30
13 56 22 58 20 6 -5 -18 -129 -39 -201 -25 -85 -23 -109 10 -109 21 0 27 9 48
70 51 152 71 357 75 792 2 139 6 252 9 250 4 -1 35 -38 69 -81 330 -416 725
-777 1002 -914 153 -75 361 -127 612 -152 149 -16 488 -8 603 14 135 25 305
72 377 105 282 128 743 550 1055 964 l96 129 6 -234 c4 -128 12 -291 18 -363z"/>
<path d="M6465 6393 c-267 -31 -521 -83 -784 -158 -106 -30 -198 -55 -203 -55
-6 0 -8 6 -5 13 9 24 -9 40 -36 33 -20 -5 -28 -15 -33 -41 -18 -97 34 -200
126 -248 48 -26 62 -28 115 -23 33 3 103 19 155 36 100 32 357 87 550 117 174
27 452 24 585 -6 162 -37 153 -37 167 -6 10 22 9 32 -8 62 -42 79 -154 182
-251 232 -85 43 -239 61 -378 44z"/>
<path d="M3324 6341 c-82 -14 -149 -57 -244 -159 -102 -110 -113 -140 -60
-167 26 -13 35 -13 87 1 36 10 122 18 228 21 259 9 518 -18 805 -83 293 -66
323 -67 385 -13 93 82 117 259 34 259 -12 0 -21 -9 -25 -25 -7 -29 2 -30 -174
20 -376 107 -859 175 -1036 146z"/>
<path d="M4727 6313 c-4 -3 -7 -43 -7 -87 0 -123 -22 -211 -70 -278 -45 -64
-49 -78 -21 -78 29 0 95 71 127 136 26 53 29 69 29 159 0 118 -8 155 -34 155
-10 0 -21 -3 -24 -7z"/>
<path d="M5227 6313 c-12 -12 -7 -147 8 -211 19 -80 52 -145 105 -204 28 -32
50 -48 66 -48 34 0 30 15 -21 74 -61 71 -81 123 -105 261 -11 64 -23 121 -26
126 -6 11 -18 12 -27 2z"/>
<path d="M6078 5550 c-37 -4 -91 -15 -120 -23 -29 -8 -68 -17 -85 -21 -66 -12
-116 -62 -88 -89 13 -13 28 -12 127 14 62 16 128 29 146 29 l32 0 0 -117 c1
-184 40 -243 167 -251 78 -5 113 8 158 61 43 50 59 116 54 226 l-4 83 47 -6
c71 -10 198 -44 242 -65 58 -29 93 -3 61 45 -25 38 -56 53 -181 86 -108 27
-136 31 -304 33 -102 2 -215 0 -252 -5z"/>
<path d="M3540 5516 c-129 -30 -176 -46 -229 -82 -44 -29 -53 -57 -23 -73 14
-7 33 -3 73 16 56 26 226 73 267 73 20 0 22 -3 16 -38 -8 -54 12 -177 40 -238
29 -64 74 -88 161 -88 98 -1 153 47 176 153 11 54 8 159 -7 195 -7 17 -3 18
52 12 32 -4 93 -16 136 -27 93 -23 127 -24 135 -3 11 30 -32 56 -149 87 -106
28 -126 30 -328 33 -197 3 -224 1 -320 -20z"/>
<path d="M7905 5281 c-77 -20 -123 -61 -205 -188 -33 -49 -52 -93 -63 -140 -9
-37 -19 -76 -22 -86 -7 -16 -2 -17 46 -12 100 11 143 -45 156 -200 8 -97 -15
-172 -69 -231 -32 -35 -37 -45 -25 -50 22 -8 54 16 92 71 62 86 70 207 23 330
-25 66 -93 145 -125 145 -19 0 -20 4 -13 34 8 38 68 151 107 203 30 41 52 53
133 73 52 13 65 20 65 36 0 15 -8 19 -35 21 -19 1 -48 -2 -65 -6z"/>
<path d="M4750 5154 c-6 -14 -10 -35 -10 -47 0 -12 -16 -92 -35 -177 -20 -85
-43 -190 -52 -232 -14 -69 -19 -78 -45 -89 -78 -32 -164 -132 -197 -231 -45
-133 -19 -239 86 -347 45 -46 54 -52 68 -41 18 15 11 28 -61 117 -24 29 -46
68 -50 89 -10 55 1 155 24 206 37 84 129 167 171 153 10 -3 23 1 29 8 6 7 23
76 37 153 13 76 39 200 56 275 32 138 33 189 4 189 -9 0 -20 -12 -25 -26z"/>
<path d="M5573 4523 c-23 -9 -14 -34 31 -83 30 -34 48 -67 60 -108 32 -114 18
-172 -64 -264 -23 -26 -39 -52 -35 -58 13 -22 44 -8 89 40 98 104 109 194 44
331 -32 69 -91 150 -107 148 -3 0 -12 -3 -18 -6z"/>
<path d="M5324 4106 c-23 -7 -70 -33 -105 -58 -78 -54 -110 -68 -152 -68 -31
1 -112 37 -208 93 -53 31 -148 45 -192 28 -45 -18 -26 -35 51 -47 53 -8 99
-25 175 -64 88 -45 114 -53 173 -57 75 -5 70 -7 226 81 46 26 85 39 123 43 62
7 82 26 50 49 -23 17 -86 17 -141 0z"/>
<path d="M4414 3936 c-277 -59 -451 -152 -596 -319 -131 -151 -200 -213 -256
-231 -93 -31 -156 -9 -212 74 l-15 22 -25 -20 c-22 -18 -25 -28 -25 -89 0 -87
26 -141 117 -238 76 -82 145 -123 263 -157 70 -20 102 -23 260 -23 136 0 201
5 265 18 126 27 388 93 525 132 92 27 153 37 260 45 204 14 325 13 376 -6 85
-30 428 -113 550 -133 344 -56 550 -44 702 41 167 94 264 237 255 375 -3 46
-4 48 -36 51 -27 3 -34 -1 -42 -23 -5 -14 -22 -30 -37 -36 -38 -15 -141 -6
-183 16 -19 9 -92 75 -161 145 -226 230 -408 324 -709 366 -278 39 -453 -11
-584 -166 l-28 -34 -20 24 c-44 56 -95 103 -132 122 -131 67 -327 84 -512 44z
m705 -607 c18 -27 52 -62 74 -77 l41 -27 -150 -5 c-82 -3 -150 -5 -152 -4 -2
1 150 164 154 164 0 0 15 -23 33 -51z"/>
<path d="M4717 2822 c-12 -2 -17 -11 -15 -25 4 -31 49 -35 383 -36 322 -1 386
8 370 50 -4 12 -64 14 -363 14 -196 0 -365 -1 -375 -3z"/>
<path d="M2242 5109 c-37 -14 -25 -45 17 -41 96 10 213 -98 255 -235 6 -19 2
-25 -26 -36 -40 -17 -95 -77 -116 -126 -20 -47 -21 -201 -3 -265 14 -47 75
-126 98 -126 25 0 20 33 -12 85 -37 62 -52 137 -41 208 9 57 51 142 84 168
l27 21 12 -31 c14 -33 33 -40 52 -18 8 10 7 27 -3 63 -8 27 -21 75 -30 106
-23 81 -111 189 -176 217 -51 22 -100 26 -138 10z"/>
</g>
</svg>
